<svg xmlns="http://www.w3.org/2000/svg" width="169.59" height="31.995" viewBox="0 0 169.59 31.995"><g transform="translate(-54 68)"><path d="M45.8,98.995H39.067V97.648H6.4v1.347H0V67H1.347v1.347H4.715V67H6.4V69.02H39.067V67h2.021v1.347h3.368V67H45.8V98.995Zm-4.715-3.031v2.021h3.368V95.963H41.088Zm-39.741,0v2.021H4.715V95.963H1.347ZM6.4,71.041V95.627H39.067V71.041ZM41.088,92.259v2.021h3.368V92.259Zm-39.741,0v2.021H4.715V92.259Zm39.741-3.7v2.021h3.368V88.554Zm-39.741,0v2.021H4.715V88.554Zm39.741-3.7V86.87h3.368V84.849Zm-39.741,0V86.87H4.715V84.849Zm39.741-3.7v2.021h3.368V81.145Zm-39.741,0v2.021H4.715V81.145Zm39.741-3.7v2.021h3.368V77.44Zm-39.741,0v2.021H4.715V77.44Zm39.741-3.7v2.021h3.368V73.735Zm-39.741,0v2.021H4.715V73.735Zm39.741-3.7v2.021h3.368V70.031Zm-39.741,0v2.021H4.715V70.031Z" transform="translate(54 -135)" fill="#fff"/><path d="M28.98-19.25a1.513,1.513,0,0,1-.525,1.05,4.671,4.671,0,0,0-.595.77l-.665.98h-.14a.285.285,0,0,1-.07.21l-.315.63-.175.42a3.542,3.542,0,0,0,.28-.84l-.315.525v.017q0,.017-.035.017h-.1v.14h-.14a.277.277,0,0,0,.035.175q0,.1-.175.1l.14.14L26-14.63l-.21.525a1.282,1.282,0,0,1-.1.227.871.871,0,0,1-.1.158.4.4,0,0,0-.14.14.174.174,0,0,0-.035.175v.175h-.14l-.14.42.14-.14a.728.728,0,0,1-.035.28H25.1a.4.4,0,0,1-.14.28v-.14l-.14.28a2.976,2.976,0,0,0-.28.42H24.4l-.035.14v.14l-.42.42.455-.98h.14v-.14l.77-1.54.735-1.54v-.14l-.14.14.21-.49.07-.21a.143.143,0,0,0,.035-.1v-.175l-.14.28h-.14v.14q-.14.245-.28.245l-.175.035a1.737,1.737,0,0,0-.315.385,1.288,1.288,0,0,1-.245.315l-.175.28q.175-.035.14.07a1.821,1.821,0,0,0-.28.49v-.14l-.28.28h.14q-.105.1-.105.14l-.035.035-.035.07-.14.175-.28.28v.14l-.14.14-.1.1q-.07.07-.07.105l-.07.14a.285.285,0,0,0-.07.21l.14-.14.14.14-.14.14h-.28l-.14.28h.14a.573.573,0,0,1-.21.35q-.245.21-.245.35h-.14v.28l-.14.14h.14l-.175.14v.14l-.14.28v.14h-.14a.4.4,0,0,1-.14.28h-.14a.965.965,0,0,1-.1.28l-.07.14-.14.14v.42l-.175.14a.4.4,0,0,0-.14.28l-.14.28v.14l-.14.14a.619.619,0,0,1-.175.28l-.28.42v-.14l-.28.28h.14a.124.124,0,0,0,.14.14l-.315.42.14.14.14-.28q0,.315-.14.35-.07.035-.018.053a.531.531,0,0,0,.158.017h-.14l-.14.14h.14a4.01,4.01,0,0,0-.3.437,1.017,1.017,0,0,0-.158.333v.35l-.035.14a.175.175,0,0,0,.28,0l.035-.14h.14l.14-.14-.14-.14q.035-.035,0-.035l.14-.385v.14a1.714,1.714,0,0,1,.455-.56q-.245.385-.315.525a.465.465,0,0,0-.1.28v.07l.1-.315v.28h.14a.7.7,0,0,0-.175.42l.175-.14q.21-.21.21-.315V-5.46q-.07-.07,0-.175a1.288,1.288,0,0,1,.245-.315h.14l-.175.315v.245l.14-.14a.57.57,0,0,0-.14.42.573.573,0,0,0-.175.42v.28H20.9q.07.1-.07.455t-.315.735a.875.875,0,0,0,0,.35.438.438,0,0,1-.035.28,2.09,2.09,0,0,0-.245.525q-.07.245-.14.6a.57.57,0,0,0-.42.14.315.315,0,0,1-.1.28l-.245.175-.385.385a.405.405,0,0,0-.28.07.405.405,0,0,1-.28.07L18.06.07l-.07.07a.2.2,0,0,1-.14.035A.621.621,0,0,1,17.622.14.376.376,0,0,1,17.5.07h-.14l.14.14-.14.14a.651.651,0,0,0-.42.14.385.385,0,0,1-.49,0L16.1.315a2.837,2.837,0,0,1-.84-.42A3.459,3.459,0,0,1,14.6-.63a4.606,4.606,0,0,1-.77-1.4l-.42-.28-.42-.56-.245-.28-.158-.157a.368.368,0,0,1-.122-.263l.14.14v-.28l-.14.14a.4.4,0,0,1-.28-.14l.175-.28.14-.14v-.42l.14.14v-.14l.035-.42h.14a11.486,11.486,0,0,1-.7-1.82l-.21-.7h.14a.257.257,0,0,1-.123-.157A.983.983,0,0,1,11.9-7.84q0,.035-.07-.385a4.739,4.739,0,0,0-.28-.8V-9.1a.119.119,0,0,1-.035-.088.119.119,0,0,0-.035-.087l-.14-.385-.175-.56v-.21h-.14a3.717,3.717,0,0,0-.035-.525q-.07-.42-.315-1.3h-.14v.14a.854.854,0,0,1-.035-.63v-.07a.605.605,0,0,0-.21-.42l.1.525q.035.21,0,.175l-.1-.42h-.14l-.315-1.365L9.7-14.91a1.468,1.468,0,0,0-.175-.42v.14l-.14-.28h.14l-.105-.56h-.14l.105.42a.947.947,0,0,1-.245-.7v.14a2.319,2.319,0,0,0-.035-.49,2.1,2.1,0,0,1-.07-.35l-.14-.56v.28l-.105-.42a1.943,1.943,0,0,0-.28-.56,2.743,2.743,0,0,1-.385-.77l-.595-1.19a2.325,2.325,0,0,1-.175-.42Q7.6-20.9,7.56-21v-.035q0-.1.21-.315a1.658,1.658,0,0,1,.875-.315L9.17-21.7q.245,0,1.225.07,1.3.315,1.47.385a1.557,1.557,0,0,1,.648.49,1.592,1.592,0,0,1,.368.56l.1.315q.035,0,.035.14l-.035.28a8.339,8.339,0,0,0,.14,1.47,1.781,1.781,0,0,0,.175.735,1.816,1.816,0,0,0,.07.227q.035.087.07.158a2.222,2.222,0,0,1,.21.84l.105.42.07.14a.143.143,0,0,0,.035.1v.175l-.14-.42h-.14a1.182,1.182,0,0,0,.14.6q.035.07.175.455a.532.532,0,0,0,.14.28.554.554,0,0,1,.07.35h.14v-.28a1.5,1.5,0,0,1,.1.84v-.14h-.14q.245.665.472,1.488t.332,1.138q-.175-.665-.595-1.82L14-14l-.21-.77a.849.849,0,0,0-.21-.28l-.14-.14a1.109,1.109,0,0,1,.14.56v.28h.105a4.825,4.825,0,0,0,.14.56l.07.21q0,.07.035.07v.28a3.49,3.49,0,0,1,.245.56l-.07.07.07.21-.14.14v-.14l-.14.14h.14l-.14.28h.14v.14l.14-.14v-.42a.4.4,0,0,1,.14.28q.035.21.14.6a1.344,1.344,0,0,0,.175.455l.07.14v.21a.579.579,0,0,0-.035.28l.14-.14.1.84h.14v.28h.14a1.109,1.109,0,0,0,.14.56l.245.7v-.14l.14.14q-.175.28,0,.28l-.035.14h.14a.57.57,0,0,0,.14.42v-.28l.14.42-.14.14.14.14v.14a.378.378,0,0,0,.1.28q.1-.245.07-.315A1.543,1.543,0,0,1,16.1-7.35a2.209,2.209,0,0,0-.052-.525,3.978,3.978,0,0,0-.333-.735l.14.14h.14l-.105-.56.21.49q.07.175.315.8l.245.805-.035.14.14.28a.285.285,0,0,1,.07-.21l.07-.14.14-.28a2.914,2.914,0,0,0,.245-.63l.49-1.015.28-.6.14-.28.07-.14a2.708,2.708,0,0,0,.385-.7q.175-.455.805-1.645l.63-1.12q.105-.21.49-.945l.07-.14,1.19-2.135.42-.805.14-.245q.035-.07.21-.385a1.765,1.765,0,0,0,.385-.7l.315-.42q.035-.035-.035-.175a3.461,3.461,0,0,0,.14-.595h-.14a2.5,2.5,0,0,0,.367-.63,2,2,0,0,0,.227-.77l.035-.35a.869.869,0,0,0-.14-.35h.56l-.14-.14v-.14l.28.28a.554.554,0,0,0,.35-.07q.07-.07.21,0l.56.21a3.21,3.21,0,0,1,.49.21l.28.14.875.35q.21.07.28,0a2.909,2.909,0,0,0,.56.42q.105.1.525.595A1.187,1.187,0,0,1,28.98-19.25Zm-5.74,0v.017q0,.018.035.017L23.1-18.9l-.035.07Zm-.28.56.1-.14-.14.28ZM9.03-16.87a2.17,2.17,0,0,1-.14-.42Zm15.33,1.4a.9.9,0,0,1-.28.455.445.445,0,0,0-.175.385h-.14v.245q-.035.035.14.035a1.128,1.128,0,0,1,.245-.49A1.411,1.411,0,0,0,24.36-15.47Zm1.82.42a1.311,1.311,0,0,0,.245-.42h.035A2.976,2.976,0,0,1,26.18-15.05Zm.21.07a.444.444,0,0,0,.105-.21l-.175.42A.285.285,0,0,1,26.39-14.98Zm-.21.21-.035.14H26Zm-2,.28h-.14a1.52,1.52,0,0,0-.28.56h-.14a.76.76,0,0,1,.14-.28q.035-.105,0-.14a2.029,2.029,0,0,0-.455.84l.14-.14.035-.14h.14l-.315.42-.14-.14q-.175.385-.525,1.015l-.28.525-.07.21-.175.21-.14.42-.28.28a.165.165,0,0,1-.175.14v.28l-.14.28-.315.42h.14l-.14.14a.4.4,0,0,1-.14.28h-.14l-.14.28v.14l-.14-.14a.728.728,0,0,1-.035.28l-.14.28v.28a6.707,6.707,0,0,0-.63,1.54v.14l-.14.28.14-.14v.14l-.14.14-.21.385a.734.734,0,0,0-.1.385v.21l.14-.105v-.1l.035-.14.1-.21h.14v-.14l.035-.14.1-.175-.1-.105L19.88-6.4a1.006,1.006,0,0,0,.245-.42L20.3-7.35v-.14a.4.4,0,0,1,.14-.28,1.541,1.541,0,0,1,.245-.56,1.5,1.5,0,0,1,.28-.49l.175-.14.21-.35.14.14q.07-.245.21-.28t.07-.28h-.14a2.976,2.976,0,0,1-.28.42h-.14a.143.143,0,0,1,.035-.1l.07-.105.175-.28.315-.63.63-1.12.28-.56v.14l.14-.14h-.14v-.14h.14a.4.4,0,0,1,.14-.28v-.14l.175-.14v-.14a.285.285,0,0,0,.21-.07,3.85,3.85,0,0,0,.455-.98A1.193,1.193,0,0,1,24.185-14.49ZM13.79-13.37a1.062,1.062,0,0,0-.035-.315.873.873,0,0,1-.07-.385v-.14l-.105-.105a2.772,2.772,0,0,0,.035.455.535.535,0,0,0,.1.28q.07.07-.07.21Zm10.045,1.54-.315.14a3.6,3.6,0,0,0,.595-.7Zm.98-.42.14-.14a.285.285,0,0,1-.07.21.554.554,0,0,0-.07.35h-.14ZM23.38-11.235l.14-.315q.035-.035.1.035.035.035-.245.525.07-.175,0-.21ZM11.06-11.27l-.14-.28a.57.57,0,0,0,.14.42Zm.665.98a1.428,1.428,0,0,0-.245-.84.2.2,0,0,0,.035.14A3.854,3.854,0,0,0,11.725-10.29ZM23.8-10.85a.378.378,0,0,0,.1.28h-.14l-.28.28.28-.14v.105a.589.589,0,0,0-.087.14,3.311,3.311,0,0,1-.193.315h.14a.765.765,0,0,0-.455.28l-.14.14.14.14-.28.28h.28L23-8.61h-.14v.14h-.14l-.14.28h-.14a.124.124,0,0,0-.14.14h.14a.188.188,0,0,1-.14.21q-.175.07-.175.35v.14a.4.4,0,0,1-.28.14l.14-.28a.285.285,0,0,1,.07-.21l1.75-3.29Zm-8.715.28a1.111,1.111,0,0,1-.07-.315Zm6.755-.28-.175.14.035-.14Zm-.455.84a.886.886,0,0,0,.14-.42l.14-.14a1.109,1.109,0,0,0-.14.56Zm1.645-.42-.175.35-.385.77v-.28a3.779,3.779,0,0,0,.455-.84l.14-.14v.035A.143.143,0,0,1,23.03-10.43ZM11.445-9.9a.6.6,0,0,0,.245.455l-.1-.315a.2.2,0,0,1-.035-.14l-.035-.07a.614.614,0,0,0-.07-.175V-9.9ZM23.45-9.73l-.28.7Q23.415-9.66,23.45-9.73Zm-11.515.455-.1-.315Q11.9-9.275,11.935-9.275Zm-.385.385-.14-.28.14.14Zm3.92-.28.14.14-.28.14.14-.14Zm.385.98-.14.14v-.42Zm6.125.98v.14h-.14Zm-.35.42.21-.42v.28l-.035.14-.1.07-.07.035a.119.119,0,0,0-.035.088.119.119,0,0,1-.035.087q-.1.28-.175.42h-.14A6.952,6.952,0,0,0,21.63-6.79Zm-2.065.28.175-.42H19.6A.317.317,0,0,0,19.565-6.51Zm.525,1.4v.14h-.14ZM12.18-3.43l-.28-.14.28-.14-.14.14Z" transform="translate(55 -41)" fill="#fff"/><path d="M1.5-.338V-7.325H.487a.4.4,0,0,1-.262-.081.267.267,0,0,1-.1-.219v-.837a.267.267,0,0,1,.1-.219.4.4,0,0,1,.262-.081h3.65a.4.4,0,0,1,.181.041.346.346,0,0,1,.133.11.252.252,0,0,1,.049.149v.837a.252.252,0,0,1-.049.149.346.346,0,0,1-.133.11.4.4,0,0,1-.181.041H3.075V-.338a.335.335,0,0,1-.093.24A.307.307,0,0,1,2.75,0H1.825a.3.3,0,0,1-.156-.046A.355.355,0,0,1,1.546-.17.321.321,0,0,1,1.5-.338Zm4.887.013L4.75-8.425a.267.267,0,0,1-.005-.06.238.238,0,0,1,.088-.191.345.345,0,0,1,.23-.074H6.125a.246.246,0,0,1,.2.106.676.676,0,0,1,.108.319L7.525-2.087a.131.131,0,0,0,.051.069.141.141,0,0,0,.086.031q.067,0,.087-.1L8.813-8.475a.383.383,0,0,1,.1-.211.328.328,0,0,1,.225-.064H10.2a.366.366,0,0,1,.236.075.236.236,0,0,1,.094.193.252.252,0,0,1-.005.058l-1.65,8.1a.366.366,0,0,1-.159.232A.494.494,0,0,1,8.425,0H6.85a.519.519,0,0,1-.2-.043.5.5,0,0,1-.17-.116A.327.327,0,0,1,6.387-.325Z" transform="translate(80 -41)" fill="#fff"/><path d="M5.287-.975.375-25.275a.8.8,0,0,1-.015-.18.715.715,0,0,1,.262-.574,1.035,1.035,0,0,1,.69-.221H4.5a.738.738,0,0,1,.615.319,2.029,2.029,0,0,1,.323.956L8.7-6.262a.392.392,0,0,0,.154.206.423.423,0,0,0,.259.094q.2,0,.262-.3l3.188-19.163a1.148,1.148,0,0,1,.3-.634.985.985,0,0,1,.675-.191h3.188a1.1,1.1,0,0,1,.709.225.707.707,0,0,1,.281.578.755.755,0,0,1-.015.172L12.75-.975a1.1,1.1,0,0,1-.476.7A1.482,1.482,0,0,1,11.4,0H6.675A1.558,1.558,0,0,1,6.06-.128a1.5,1.5,0,0,1-.51-.349A.98.98,0,0,1,5.287-.975Zm15.225.037V-25.2a1.006,1.006,0,0,1,.278-.72.921.921,0,0,1,.7-.292h2.775a.854.854,0,0,1,.458.135,1.006,1.006,0,0,1,.349.368,1.02,1.02,0,0,1,.131.51V-.937a1.02,1.02,0,0,1-.131.51,1.006,1.006,0,0,1-.349.368.854.854,0,0,1-.458.135H21.488a.921.921,0,0,1-.7-.292A1.006,1.006,0,0,1,20.513-.937Zm8.962-.075V-24.975a1.181,1.181,0,0,1,.158-.593,1.242,1.242,0,0,1,.416-.443,1.008,1.008,0,0,1,.551-.165h7.538a7.094,7.094,0,0,1,2.411.413,6.886,6.886,0,0,1,2.081,1.181,6.8,6.8,0,0,1,1.545,1.819,7.166,7.166,0,0,1,.9,3.525l.037,12a7.6,7.6,0,0,1-.4,2.46,7.678,7.678,0,0,1-1.155,2.183A7,7,0,0,1,41.775-.937,6.253,6.253,0,0,1,38.325.075h-4.2a.114.114,0,0,1-.06.03.466.466,0,0,1-.09.007H30.488a.922.922,0,0,1-.51-.15,1.065,1.065,0,0,1-.368-.4A1.2,1.2,0,0,1,29.475-1.013ZM37.2-4.425a2.975,2.975,0,0,0,1.553-.435,3.319,3.319,0,0,0,1.162-1.162,2.975,2.975,0,0,0,.435-1.552V-19.013a2.7,2.7,0,0,0-.383-1.4,2.89,2.89,0,0,0-1.027-1.028,2.7,2.7,0,0,0-1.4-.383h-3.15a.552.552,0,0,0-.394.161.492.492,0,0,0-.169.364V-4.725A.3.3,0,0,0,33.9-4.5a.3.3,0,0,0,.221.079ZM48.375-1.087V-25.312a.936.936,0,0,1,.281-.7,1,1,0,0,1,.731-.274H60.45a1.006,1.006,0,0,1,.72.278.921.921,0,0,1,.292.7v2.587a1,1,0,0,1-.135.51,1,1,0,0,1-.368.368,1,1,0,0,1-.51.135H52.875v5.737h5.738a.918.918,0,0,1,.679.259.918.918,0,0,1,.259.679v2.625a.918.918,0,0,1-.259.679.918.918,0,0,1-.679.259H52.875V-4.65H60.45a1.006,1.006,0,0,1,.72.278.921.921,0,0,1,.292.7v2.588a1,1,0,0,1-.135.51,1,1,0,0,1-.368.367,1,1,0,0,1-.51.135H49.388a.972.972,0,0,1-.728-.292A.992.992,0,0,1,48.375-1.087ZM65.363-3.413a7.325,7.325,0,0,1-.975-3.675V-19.425a7.284,7.284,0,0,1,.435-2.509,7.014,7.014,0,0,1,1.249-2.156,7.248,7.248,0,0,1,1.916-1.6,6.979,6.979,0,0,1,3.6-.937h1.237A7.247,7.247,0,0,1,75.3-26.2a7.217,7.217,0,0,1,2.156,1.223,6.923,6.923,0,0,1,1.6,1.875,7.051,7.051,0,0,1,.938,3.637l.037,12.375a7.174,7.174,0,0,1-.439,2.483,7.5,7.5,0,0,1-1.249,2.19A7.537,7.537,0,0,1,76.425-.75,6.639,6.639,0,0,1,72.863.262H71.625a6.975,6.975,0,0,1-2.471-.446A7.254,7.254,0,0,1,66.99-1.459,7.446,7.446,0,0,1,65.363-3.413Zm6.862-.75a2.7,2.7,0,0,0,1.463-.424,3.08,3.08,0,0,0,1.069-1.132,3.078,3.078,0,0,0,.394-1.519V-19.5a2.814,2.814,0,0,0-.394-1.47,2.834,2.834,0,0,0-1.073-1.039,3.018,3.018,0,0,0-1.5-.379h-.113a3.06,3.06,0,0,0-1.5.379A2.9,2.9,0,0,0,69.48-20.97a2.755,2.755,0,0,0-.4,1.47V-7.237a3.012,3.012,0,0,0,.4,1.519,3.129,3.129,0,0,0,1.1,1.132,2.813,2.813,0,0,0,1.5.424ZM91.5-1.013V-21.975H88.463a1.21,1.21,0,0,1-.787-.244.8.8,0,0,1-.3-.656v-2.513a.8.8,0,0,1,.3-.656,1.21,1.21,0,0,1,.787-.244h10.95a1.214,1.214,0,0,1,.544.124,1.038,1.038,0,0,1,.4.33.756.756,0,0,1,.146.446v2.513a.756.756,0,0,1-.146.446,1.038,1.038,0,0,1-.4.33,1.214,1.214,0,0,1-.544.124H96.225V-1.013a1.006,1.006,0,0,1-.277.72.921.921,0,0,1-.7.293H92.475a.893.893,0,0,1-.469-.139,1.066,1.066,0,0,1-.368-.371A.963.963,0,0,1,91.5-1.013Zm14.662.038-4.912-24.3a.8.8,0,0,1-.015-.18.715.715,0,0,1,.262-.574,1.035,1.035,0,0,1,.69-.221h3.188a.738.738,0,0,1,.615.319,2.029,2.029,0,0,1,.323.956l3.262,18.712a.392.392,0,0,0,.154.206.423.423,0,0,0,.259.094q.2,0,.262-.3l3.188-19.163a1.148,1.148,0,0,1,.3-.634.985.985,0,0,1,.675-.191H117.6a1.1,1.1,0,0,1,.709.225.707.707,0,0,1,.281.578.755.755,0,0,1-.015.172l-4.95,24.3a1.1,1.1,0,0,1-.476.7,1.482,1.482,0,0,1-.874.278H107.55a1.558,1.558,0,0,1-.615-.128,1.5,1.5,0,0,1-.51-.349A.979.979,0,0,1,106.162-.975Z" transform="translate(105 -39)" fill="#fff"/></g></svg>